<?xml version="1.0" encoding="utf-8"?>
<!-- Generator: Adobe Illustrator 18.0.0, SVG Export Plug-In . SVG Version: 6.00 Build 0)  -->
<!DOCTYPE svg PUBLIC "-//W3C//DTD SVG 1.1//EN" "http://www.w3.org/Graphics/SVG/1.1/DTD/svg11.dtd">
<svg version="1.1" xmlns="http://www.w3.org/2000/svg" xmlns:xlink="http://www.w3.org/1999/xlink" x="0px" y="0px"
	 viewBox="0 0 142.3 142" enable-background="new 0 0 142.3 142" xml:space="preserve">
<g id="Layer_1" display="none">
	
		<image display="inline" overflow="visible" width="140" height="140" xlink:href="about02.png"  transform="matrix(1.0142 0 0 1.0142 0 0)">
	</image>
</g>
<g id="Layer_2" display="none">
	
		<image display="inline" overflow="visible" width="128" height="128" xlink:href="../../../../../../Desktop/cv_cover_letter-128.png"  transform="matrix(0.6745 0 0 0.6745 27.6667 28.3333)">
	</image>
</g>
<g id="Layer_3" display="none">
	<rect x="30" y="34" fill="none" width="84" height="79.2"/>
	<path display="inline" fill="#292929" d="M47.1,61.2h34.3c1.6,0,1.6,3.7,0,3.7H47.1C45.3,64.9,45.3,61.2,47.1,61.2z M87.8,98.3
		c0,2.7-2.4,4.9-5.2,4.9H45.7c-2.9,0-5.2-2.2-5.2-4.9V56.3h7.9c5.2,0,7.9-2.5,7.9-7.4v-4.9h26.3c2.9,0,5.2,2.2,5.2,4.9V56l5.1-8.2
		c-0.6-5-5-8.8-10.4-8.8H56.2c-5.9,0-21,11.7-21,17.3v42.1c0,5.5,4.7,9.9,10.5,9.9h36.8c5.8,0,10.5-4.4,10.5-9.9V73l-5.2,8.4V98.3z
		 M47.1,68.6c-1.8,0-1.8,3.7,0,3.7h30.5l2.3-3.7H47.1z M75.2,76.1H47.1c-1.8,0-1.8,3.7,0,3.7h26.1c0.6-1.2,1.1-2.1,1.4-2.6
		L75.2,76.1z M102.9,44.4c-1.9-1-4.3-0.4-5.4,1.3L77,78.5c-4.1,6.6-5.6,14.1-4.6,14.7c1,0.6,7.2-4.3,11.4-10.9l20.5-32.8
		C105.4,47.7,104.8,45.4,102.9,44.4z M106.8,50.9L94.6,70.4c1.9,1,4.3,0.4,5.4-1.3l8.2-13.1C109.3,54.2,108.7,51.9,106.8,50.9z
		 M50.3,94.7c0.9,1,2.5,1.6,4.1,1c0.4-0.2,0.9-0.4,1.2-0.7c0.4,0.4,1,0.6,1.7,0.8c1.3,0.3,2.6,0,3.6-0.8c1.1,0.9,2.2,1.1,3.3,0.9
		c0.8-0.1,1.9-0.6,2.9-2c0.5-0.7,0.3-1.7-0.5-2.1c-0.8-0.5-1.8-0.3-2.3,0.5c-0.4,0.6-0.7,0.7-1,0.6c-0.7-0.4-0.3-1.5-0.2-2.3
		c0.2-0.8-0.4-1.6-1.3-1.8c-0.9-0.1-1.7,0.4-1.9,1.2c-0.2,0.9-0.8,3.1-1.8,2.8c-0.8-0.2-0.3-1.4-0.1-2.2c0.2-0.8-0.3-1.7-1.1-1.9
		c-0.9-0.2-1.8,0.2-2,1c-0.2,0.7-0.9,2.8-1.7,3.1c-1.5,0.4,0-6.1,0.3-7.5c0.2-0.8-0.4-1.6-1.3-1.8c-0.9-0.2-1.7,0.3-1.9,1.1
		c-0.5,1.8-1.2,8-3.1,8.2c-0.9,0.1-1.5,0.9-1.4,1.7c0.1,0.8,0.8,1.4,1.6,1.4C48.2,96,49.4,95.6,50.3,94.7z"/>
</g>
<g id="Layer_4" display="none">
	<path display="inline" fill="#292929" d="M85.9,37.7H57.2c-15.5,0-21.5,13.1-21.5,26.3c0,12.4,5.3,24.7,18.8,26.1
		c-0.7,4.1-3.2,8.7-11.7,12.1c8.4,0,20.4-1.8,26.5-12h16.5c15.5,0,21.5-13.1,21.5-26.3S101.3,37.7,85.9,37.7z M69.1,73
		c0,0.3-0.3,0.6-0.7,0.6h-2.8c-0.4,0-0.7-0.3-0.7-0.6v-8.1c0-2-0.6-2.5-2.2-2.5c-1.2,0-2.4,0.6-3.6,1.8V73c0,0.3-0.3,0.6-0.7,0.6
		h-2.8c-0.4,0-0.7-0.3-0.7-0.6V52.7c0-0.3,0.3-0.6,0.7-0.6h2.8c0.4,0,0.7,0.3,0.7,0.6v7.8c1.2-0.8,2.6-1.2,4-1.2
		c2.8,0,6.1,1,6.1,5.6V73z M83.7,52.7c0-0.4,0.4-0.6,0.8-0.6h2.6c0.4,0,0.8,0.3,0.8,0.6v13.1c0,0.4-0.4,0.6-0.8,0.6h-2.6
		c-0.4,0-0.8-0.3-0.8-0.6V52.7z M78.7,73c0,0.3-0.4,0.6-0.8,0.6h-3.2c-0.4,0-0.8-0.3-0.8-0.6V60c0-0.3,0.4-0.6,0.8-0.6h3.2
		c0.4,0,0.8,0.3,0.8,0.6V73z M78.7,56.2c0,0.4-0.4,0.6-0.8,0.6h-3.2c-0.4,0-0.8-0.3-0.8-0.6v-3.5c0-0.4,0.4-0.6,0.8-0.6h3.2
		c0.4,0,0.8,0.3,0.8,0.6V56.2z M88.2,73c0,0.4-0.4,0.6-0.8,0.6h-3.2c-0.4,0-0.8-0.3-0.8-0.6v-3.5c0-0.4,0.4-0.6,0.8-0.6h3.2
		c0.4,0,0.8,0.3,0.8,0.6V73z"/>
</g>
<g id="Layer_5">
	<path fill="#292929" d="M98.6,42.1H45.3c-5.4,0-9.7,4.3-9.7,9.7v43.6c0,5.4,4.3,9.7,9.7,9.7h53.3c5.4,0,9.7-4.3,9.7-9.7V51.8
		C108.3,46.4,104,42.1,98.6,42.1z M98.6,46.9c1.3,0,2.4,1.1,2.4,2.4s-1.1,2.4-2.4,2.4s-2.4-1.1-2.4-2.4S97.3,46.9,98.6,46.9z
		 M91.4,46.9c1.3,0,2.4,1.1,2.4,2.4s-1.1,2.4-2.4,2.4c-1.3,0-2.4-1.1-2.4-2.4S90,46.9,91.4,46.9z M103.5,95.4c0,2.7-2.2,4.8-4.8,4.8
		H45.3c-2.7,0-4.8-2.2-4.8-4.8V56.6h63V95.4z M72,61.5c-9.4,0-17,7.6-17,17s7.6,17,17,17s17-7.6,17-17S81.4,61.5,72,61.5z M83.9,76
		h-4.2c-0.2-2.8-0.6-5.5-1.4-7.9C81.1,69.9,83.2,72.7,83.9,76z M72,90.5c-0.8-0.5-2.5-3.8-2.8-9.6h5.7C74.4,86.7,72.8,89.9,72,90.5z
		 M69.1,76c0.4-6,2.1-9.2,2.8-9.7c0.8,0.5,2.5,3.7,2.9,9.7H69.1z M65.6,68.1c-0.8,2.3-1.2,5.1-1.4,7.9h-4.2
		C60.8,72.7,62.8,69.9,65.6,68.1z M60.1,80.9h4.2c0.2,2.8,0.6,5.5,1.4,7.9C62.8,87,60.8,84.2,60.1,80.9z M78.3,88.7
		c0.8-2.3,1.2-5.1,1.4-7.9h4.2C83.2,84.2,81.1,87,78.3,88.7z"/>
	<rect x="49" y="61" fill="#FFFFFF" width="46" height="35"/>
	<g>
		<circle fill="#292929" cx="72.3" cy="71.6" r="6.5"/>
		<path fill="#292929" d="M84.7,92.5c-0.2-6.7-5.7-12-12.4-12c-6.7,0-12.2,5.3-12.4,12H84.7z"/>
	</g>
</g>
</svg>
