<?xml version="1.0" encoding="utf-8"?>
<!-- Generator: Adobe Illustrator 18.0.0, SVG Export Plug-In . SVG Version: 6.00 Build 0)  -->
<!DOCTYPE svg PUBLIC "-//W3C//DTD SVG 1.1//EN" "http://www.w3.org/Graphics/SVG/1.1/DTD/svg11.dtd">
<svg version="1.1" xmlns="http://www.w3.org/2000/svg" xmlns:xlink="http://www.w3.org/1999/xlink" x="0px" y="0px"
	 viewBox="0 0 142.3 142" enable-background="new 0 0 142.3 142" xml:space="preserve">
<g id="Layer_1" display="none">
	
		<image display="inline" overflow="visible" width="140" height="140" xlink:href="about02.png"  transform="matrix(1.0142 0 0 1.0142 0 0)">
	</image>
</g>
<g id="Layer_2" display="none">
	
		<image display="inline" overflow="visible" width="128" height="128" xlink:href="../../../../../../Desktop/cv_cover_letter-128.png"  transform="matrix(0.6745 0 0 0.6745 27.6667 28.3333)">
	</image>
</g>
<g id="Layer_3">
	<rect x="30" y="34" display="none" fill="none" width="84" height="79.2"/>
	<path fill="#292929" d="M47.1,61.2h34.3c1.6,0,1.6,3.7,0,3.7H47.1C45.3,64.9,45.3,61.2,47.1,61.2z M87.8,98.3
		c0,2.7-2.4,4.9-5.2,4.9H45.7c-2.9,0-5.2-2.2-5.2-4.9V56.3h7.9c5.2,0,7.9-2.5,7.9-7.4v-4.9h26.3c2.9,0,5.2,2.2,5.2,4.9V56l5.1-8.2
		c-0.6-5-5-8.8-10.4-8.8H56.2c-5.9,0-21,11.7-21,17.3v42.1c0,5.5,4.7,9.9,10.5,9.9h36.8c5.8,0,10.5-4.4,10.5-9.9V73l-5.2,8.4V98.3z
		 M47.1,68.6c-1.8,0-1.8,3.7,0,3.7h30.5l2.3-3.7H47.1z M75.2,76.1H47.1c-1.8,0-1.8,3.7,0,3.7h26.1c0.6-1.2,1.1-2.1,1.4-2.6
		L75.2,76.1z M102.9,44.4c-1.9-1-4.3-0.4-5.4,1.3L77,78.5c-4.1,6.6-5.6,14.1-4.6,14.7c1,0.6,7.2-4.3,11.4-10.9l20.5-32.8
		C105.4,47.7,104.8,45.4,102.9,44.4z M106.8,50.9L94.6,70.4c1.9,1,4.3,0.4,5.4-1.3l8.2-13.1C109.3,54.2,108.7,51.9,106.8,50.9z
		 M50.3,94.7c0.9,1,2.5,1.6,4.1,1c0.4-0.2,0.9-0.4,1.2-0.7c0.4,0.4,1,0.6,1.7,0.8c1.3,0.3,2.6,0,3.6-0.8c1.1,0.9,2.2,1.1,3.3,0.9
		c0.8-0.1,1.9-0.6,2.9-2c0.5-0.7,0.3-1.7-0.5-2.1c-0.8-0.5-1.8-0.3-2.3,0.5c-0.4,0.6-0.7,0.7-1,0.6c-0.7-0.4-0.3-1.5-0.2-2.3
		c0.2-0.8-0.4-1.6-1.3-1.8c-0.9-0.1-1.7,0.4-1.9,1.2c-0.2,0.9-0.8,3.1-1.8,2.8c-0.8-0.2-0.3-1.4-0.1-2.2c0.2-0.8-0.3-1.7-1.1-1.9
		c-0.9-0.2-1.8,0.2-2,1c-0.2,0.7-0.9,2.8-1.7,3.1c-1.5,0.4,0-6.1,0.3-7.5c0.2-0.8-0.4-1.6-1.3-1.8c-0.9-0.2-1.7,0.3-1.9,1.1
		c-0.5,1.8-1.2,8-3.1,8.2c-0.9,0.1-1.5,0.9-1.4,1.7c0.1,0.8,0.8,1.4,1.6,1.4C48.2,96,49.4,95.6,50.3,94.7z"/>
</g>
</svg>
