<?xml version="1.0" encoding="utf-8"?>
<!-- Generator: Adobe Illustrator 18.0.0, SVG Export Plug-In . SVG Version: 6.00 Build 0)  -->
<!DOCTYPE svg PUBLIC "-//W3C//DTD SVG 1.1//EN" "http://www.w3.org/Graphics/SVG/1.1/DTD/svg11.dtd">
<svg version="1.1" xmlns="http://www.w3.org/2000/svg" xmlns:xlink="http://www.w3.org/1999/xlink" x="0px" y="0px"
	 viewBox="0 0 142 141" enable-background="new 0 0 142 141" xml:space="preserve">
<g id="Layer_1" display="none">
	
		<image display="inline" overflow="visible" width="140" height="140" xlink:href="../Projects/rosa/assets/images/pages/features/about03.png"  transform="matrix(1.0142 0 0 1.0142 0 0)">
	</image>
</g>
<g id="Layer_3" display="none">
	<rect display="inline" fill="#0881B7" width="142" height="141"/>
</g>
<g id="Layer_2">
	<path fill="none" stroke="#FF6600" stroke-miterlimit="10" d="M108.1,114.9H33.9c-5.2,0-9.4-4.2-9.4-9.4V35.5
		c0-5.2,4.2-9.4,9.4-9.4h74.2c5.2,0,9.4,4.2,9.4,9.4v69.9C117.5,110.6,113.3,114.9,108.1,114.9z"/>
	<path fill="none" stroke="#FF6600" stroke-miterlimit="10" d="M108.5,115.2h-75c-5,0-9-4-9-9V39.1h93v67.1
		C117.5,111.2,113.5,115.2,108.5,115.2z"/>
	<rect x="32.2" y="45.5" fill="none" stroke="#FF6600" stroke-miterlimit="10" width="77.6" height="19.3"/>
	<rect x="99.3" y="70.5" fill="none" stroke="#FF6600" stroke-miterlimit="10" width="10.5" height="18.3"/>
	<line fill="none" stroke="#FF6600" stroke-width="2" stroke-miterlimit="10" x1="32.2" y1="70.5" x2="85.3" y2="70.5"/>
	<rect x="32.2" y="32.1" fill="none" stroke="#FF6600" stroke-miterlimit="10" width="59.4" height="3.5"/>
	<line fill="none" stroke="#FF6600" stroke-width="2" stroke-miterlimit="10" x1="32.2" y1="77.1" x2="81.1" y2="77.1"/>
	<line fill="none" stroke="#FF6600" stroke-width="2" stroke-miterlimit="10" x1="32.2" y1="83.5" x2="90.2" y2="83.5"/>
	<line fill="none" stroke="#FF6600" stroke-width="2" stroke-miterlimit="10" x1="32.2" y1="90.1" x2="85.3" y2="90.1"/>
	<line fill="none" stroke="#FF6600" stroke-width="2" stroke-miterlimit="10" x1="32.2" y1="96.5" x2="76.6" y2="96.5"/>
	<ellipse fill="#FF6600" cx="97.2" cy="33.9" rx="1.7" ry="1.7"/>
	<ellipse fill="#FF6600" cx="102.1" cy="33.9" rx="1.7" ry="1.7"/>
	<ellipse fill="#FF6600" cx="107.7" cy="33.9" rx="1.7" ry="1.7"/>
</g>
<g id="Layer_7" display="none">
	<g>
		
			<rect x="82.8" y="43.5" transform="matrix(0.7071 0.7071 -0.7071 0.7071 62.3427 -53.573)" display="inline" fill="none" stroke="#FF6600" stroke-miterlimit="10" width="26.1" height="10"/>
		
			<rect x="73.7" y="49.7" transform="matrix(0.7071 0.7071 -0.7071 0.7071 79.0085 -31.5803)" display="inline" fill="none" stroke="#FF6600" stroke-miterlimit="10" width="7.8" height="59.7"/>
		<line display="inline" fill="none" stroke="#FF6600" stroke-miterlimit="10" x1="35.5" y1="99.7" x2="42.2" y2="106"/>
		<path display="inline" fill="none" stroke="#FF6600" stroke-miterlimit="10" d="M59.2,103.5L40.8,85.1L90,35.8
			c3.1-3.1,8.2-3.1,11.3,0l7.1,7.1c3.1,3.1,3.1,8.2,0,11.3L59.2,103.5z"/>
		<polygon display="inline" fill="none" stroke="#FF6600" stroke-miterlimit="10" points="40.7,85.5 32.6,107.6 58.8,103.3 		"/>
	</g>
	<path fill="none" stroke="#FF6600" stroke-miterlimit="10" d="M109.5,115.2H33c-4.4,0-8-3.6-8-8V33.8c0-4.4,3.6-8,8-8h76.5
		c4.4,0,8,3.6,8,8v73.4C117.5,111.6,113.9,115.2,109.5,115.2z"/>
</g>
<g id="Layer_5" display="none">
	<rect x="50.3" y="26.7" display="inline" fill="none" stroke="#FFFFFF" stroke-miterlimit="10" width="41.8" height="68.8"/>
	<rect x="75.4" y="48.8" display="inline" fill="none" stroke="#FFFFFF" stroke-miterlimit="10" width="10.4" height="37.1"/>
	<rect x="54.7" y="48.8" display="inline" fill="none" stroke="#FFFFFF" stroke-miterlimit="10" width="18.3" height="9.3"/>
	<rect x="51.9" y="31.7" display="inline" fill="none" stroke="#FFFFFF" stroke-miterlimit="10" width="26.4" height="3.3"/>
	<rect x="52.8" y="42.9" display="inline" fill="none" stroke="#FFFFFF" stroke-miterlimit="10" width="36.8" height="48.2"/>
	<line display="inline" fill="none" stroke="#FFFFFF" stroke-miterlimit="10" x1="54.7" y1="62.2" x2="63.9" y2="62.2"/>
	<line display="inline" fill="none" stroke="#FFFFFF" stroke-miterlimit="10" x1="54.7" y1="67.4" x2="63.9" y2="67.4"/>
	<line display="inline" fill="none" stroke="#FFFFFF" stroke-miterlimit="10" x1="54.7" y1="73.5" x2="73" y2="73.5"/>
	<line display="inline" fill="none" stroke="#FFFFFF" stroke-miterlimit="10" x1="54.7" y1="79.2" x2="73" y2="79.2"/>
	<line display="inline" fill="none" stroke="#FFFFFF" stroke-miterlimit="10" x1="54.7" y1="84.2" x2="73" y2="84.2"/>
	<circle display="inline" fill="#FFFFFF" cx="81.4" cy="33.4" r="1.2"/>
	<circle display="inline" fill="#FFFFFF" cx="85.2" cy="33.4" r="1.2"/>
	<circle display="inline" fill="#FFFFFF" cx="88.7" cy="33.4" r="1.2"/>
</g>
<g id="Layer_6" display="none">
	<g display="inline">
		<rect x="36" y="38.9" fill="none" stroke="#FF6600" stroke-width="0.75" stroke-miterlimit="10" width="70.3" height="39.2"/>
		<circle fill="none" stroke="#FF6600" stroke-width="0.75" stroke-miterlimit="10" cx="71" cy="83.8" r="1.9"/>
		<path fill="none" stroke="#FF6600" stroke-width="0.75" stroke-miterlimit="10" d="M106.7,36.5H34.9c-0.8,0-1.5,0.7-1.5,1.5v47.3
			c0,1,0.8,1.9,1.9,1.9h27.9c0.2,0.5,0.4,1,0.4,1.6v4.6c0,2-1.6,3.7-3.7,3.7v1.2h22.3v-1.3c-1.8-0.3-3.2-1.8-3.2-3.7v-4.6
			c0-0.6,0.1-1.1,0.4-1.6h27.3c1,0,1.9-0.8,1.9-1.9v-47C108.5,37.4,107.7,36.5,106.7,36.5z"/>
	</g>
	<rect x="86.7" y="70.6" display="inline" fill="none" stroke="#FF6600" stroke-miterlimit="10" width="14.9" height="26"/>
</g>
<g id="Layer_4" display="none">
	<circle display="inline" fill="#FF6600" cx="94.1" cy="101.3" r="1.2"/>
	<path display="inline" fill="none" stroke="#FF6600" stroke-miterlimit="10" d="M103,105H85.4c-0.6,0-1-0.5-1-1V67.5
		c0-0.6,0.4-1,1-1H103c0.5,0,1,0.4,1,1V104C104,104.5,103.5,105,103,105z"/>
</g>
</svg>
