<?xml version="1.0" encoding="utf-8"?>
<!-- Generator: Adobe Illustrator 18.0.0, SVG Export Plug-In . SVG Version: 6.00 Build 0)  -->
<!DOCTYPE svg PUBLIC "-//W3C//DTD SVG 1.1//EN" "http://www.w3.org/Graphics/SVG/1.1/DTD/svg11.dtd">
<svg version="1.1" id="Layer_1" xmlns="http://www.w3.org/2000/svg" xmlns:xlink="http://www.w3.org/1999/xlink" x="0px" y="0px"
	 viewBox="0 0 900 600" enable-background="new 0 0 900 600" xml:space="preserve">
<g id="Layer_2" display="none">
	
		<image display="inline" overflow="visible" enable-background="new    " width="140" height="140" xlink:href="logo2_welcome.png"  transform="matrix(4.2854 0 0 4.2854 150 0)">
	</image>
</g>
<g id="Layer_1_1_" display="none">
</g>
<g>
	<polygon fill="none" stroke="#FFFFFF" stroke-width="2" stroke-miterlimit="10" points="364,586.3 459.4,586.3 412.1,476.7 	"/>
	<polygon fill="none" stroke="#FFFFFF" stroke-width="2" stroke-miterlimit="10" points="514.8,586.3 514.8,484.3 465.4,586.3 	"/>
	<path fill="none" stroke="#FFFFFF" stroke-width="2" stroke-miterlimit="10" d="M598.1,127.9H301.7c-44.2,0-81,36.1-81,81V506
		c0,44.2,36.1,81,81,81H358l-90.8-187.6h46.5L361,502.3l51-119.4l51,119.4l46.5-102.8H556v0.7h0.7v17.2c7.5-8.2,14.2-14.2,20.2-17.9
		c6-3,13.5-5.3,21.8-5.3c11.2,0,22.6,3.7,34.5,11.2l-18.8,40.5c-8.2-6-15.8-9.1-23.3-9.1c-22.6,0-33.7,17.9-33.7,54.7v93.8h42.1
		c44.2,0,81-36.1,81-81V208.9C679.3,163.7,642.5,127.9,598.1,127.9z"/>
</g>
<path fill="#FFFFFF" d="M256.8,274.8l12.9,29.3l13.3-32.4l13.3,32.4l12.9-29.3h8.4l-21.3,46.1l-13.3-32.4l-13.3,32.4l-21.3-46.1
	L256.8,274.8L256.8,274.8z"/>
<path fill="#FFFFFF" d="M358.5,274.8h7.6v43.1h-7.6v-6.2c-2.6,3.2-7.1,7.1-14.6,7.1c-11.1,0-20.9-7.6-20.9-22.6
	c0-14.6,9.8-22.6,20.9-22.6c8.4,0,12.9,4.4,14.6,7.1V274.8z M330.6,296.1c0,9.4,5.4,16.4,14.2,16.4c9.4,0,14.2-7.6,14.2-16
	c0-11.1-7.6-16-14.2-16C337.2,280.1,330.6,285.9,330.6,296.1z"/>
<path fill="#FFFFFF" d="M398.1,284.5c-0.8-2.6-3.2-4.4-6.2-4.4c-2.6,0-5.4,1.8-5.4,4.8c0,3.2,2.2,4,7.1,6.2
	c6.2,2.6,9.4,4.4,10.6,6.6c1.8,2.2,2.2,4.4,2.2,7.1c0,8.9-6.6,14.2-14.6,14.2c-1.8,0-11.6,0-15.1-11.1l6.6-2.6
	c0.8,2.2,3.2,7.1,8.9,7.1c4.8,0,7.1-3.6,7.1-6.6c0-4-3.2-5.4-7.1-7.1c-5.4-2.2-8.4-4-10.6-6.2c-1.8-2.2-1.8-4-1.8-6.2
	c0-7.6,5.4-12,12.4-12c2.2,0,8.4,0.4,12,8L398.1,284.5z"/>
<path fill="#FFFFFF" d="M455.3,306.8c-1.4,2.2-3.2,4.8-5.4,7.1c-4,3.6-8.9,5.4-14.2,5.4c-10.2,0-21.3-6.6-21.3-22.6
	c0-12.9,8-22.6,20.9-22.6c8.4,0,13.8,4,16.4,8c2.6,4,4.4,10.6,4,16.4H422c0,8.9,6.2,14.6,13.8,14.6c3.6,0,6.2-0.8,8.9-3.2
	c1.8-1.8,3.6-4,4.4-5.8L455.3,306.8z M447.8,291.7c-1.4-6.6-6.2-11.1-12.9-11.1c-6.2,0-11.6,4.8-12.9,11.1H447.8z"/>
<path fill="#FFFFFF" d="M474.5,242v76h-7.6v-76C466.9,242,474.5,242,474.5,242z"/>
<path fill="#FFFFFF" d="M488.7,274.8h7.6v4.8c0.8-1.4,4-5.8,9.8-5.8c2.2,0,4.8,0.8,6.6,1.8l-3.6,6.6c-1.8-1.4-3.2-1.4-4.4-1.4
	c-3.2,0-4.8,1.4-6.2,2.6c-1.4,1.8-2.6,4.4-2.6,11.6v22.6h-7.6v-43.1h0.4V274.8z"/>
<path fill="#FFFFFF" d="M514,296.5c0-12.9,9.8-22.6,22.6-22.6c12.8,0,23.1,9.8,23.1,22.6s-9.8,22.6-23.1,22.6
	C523.2,319.2,514,309.4,514,296.5z M522,296.5c0,10.6,7.6,16,15.1,16c8,0,15.1-5.4,15.1-16c0-10.6-7.1-16-15.1-16
	C529,280.1,522,285.9,522,296.5z"/>
<path fill="#FFFFFF" d="M589,284.5c-0.8-2.6-3.2-4.4-6.2-4.4c-2.6,0-5.4,1.8-5.4,4.8c0,3.2,2.2,4,7.1,6.2c6.2,2.6,9.4,4.4,10.6,6.6
	c1.8,2.2,2.2,4.4,2.2,7.1c0,8.9-6.6,14.2-14.6,14.2c-1.8,0-11.6,0-15.1-11.1l6.6-2.6c0.8,2.2,3.2,7.1,8.9,7.1c4.8,0,7.1-3.6,7.1-6.6
	c0-4-3.2-5.4-7.1-7.1c-5.4-2.2-8.4-4-10.6-6.2c-1.8-2.2-1.8-4-1.8-6.2c0-7.6,5.4-12,12.4-12c2.2,0,8.4,0.4,12,8L589,284.5z"/>
<path fill="#FFFFFF" d="M641,274.8h7.6v43.1H641v-6.2c-2.6,3.2-7.1,7.1-14.6,7.1c-11.1,0-20.9-7.6-20.9-22.6
	c0-14.6,9.8-22.6,20.9-22.6c8.4,0,12.9,4.4,14.6,7.1V274.8z M613,296.1c0,9.4,5.4,16.4,14.2,16.4c9.4,0,14.2-7.6,14.2-16
	c0-11.1-7.6-16-14.2-16C619.6,280.1,613,285.9,613,296.1z"/>
</svg>
