<?xml version="1.0" encoding="utf-8"?>
<!-- Generator: Adobe Illustrator 18.0.0, SVG Export Plug-In . SVG Version: 6.00 Build 0)  -->
<!DOCTYPE svg PUBLIC "-//W3C//DTD SVG 1.1//EN" "http://www.w3.org/Graphics/SVG/1.1/DTD/svg11.dtd">
<svg version="1.1" id="Layer_1" xmlns="http://www.w3.org/2000/svg" xmlns:xlink="http://www.w3.org/1999/xlink" x="0px" y="0px"
	 viewBox="0 0 900 600" enable-background="new 0 0 900 600" xml:space="preserve">
<g id="Layer_2" display="none">
	
		<image display="inline" overflow="visible" enable-background="new    " width="140" height="140" xlink:href="logo2_welcome.png"  transform="matrix(4.2854 0 0 4.2854 150 0)">
	</image>
</g>
<g id="Layer_1_1_" display="none">
</g>
<g>
	<polygon fill="#FFFFFF" points="383.8,584.5 457.4,584.5 420.9,499.9 	"/>
	<polygon fill="#FFFFFF" points="500.1,584.5 500.1,505.8 462,584.5 	"/>
	<path fill="#FFFFFF" d="M564.4,230.9H335.7c-34.1,0-62.5,27.8-62.5,62.5v229.2c0,34.1,27.8,62.5,62.5,62.5h43.4l-70-144.7H345
		l36.4,79.3l39.3-92.1l39.3,92.1l35.9-79.3h35.9v0.5h0.5v13.3c5.8-6.3,11-11,15.6-13.8c4.7-2.3,10.4-4.1,16.9-4.1
		c8.6,0,17.4,2.9,26.6,8.6L577,476.1c-6.3-4.7-12.2-7-17.9-7c-17.4,0-26,13.8-26,42.2v72.3h32.5c34.1,0,62.5-27.8,62.5-62.5V293.3
		C627,258.5,598.6,230.9,564.4,230.9z"/>
</g>
<path fill="#FFFFFF" d="M199.1,135.2l16.9,38.2l17.4-42.2l17.4,42.2l16.9-38.2h11l-27.8,60.1l-17.4-42.2L216,195.4l-27.8-60.1
	L199.1,135.2L199.1,135.2z"/>
<path fill="#FFFFFF" d="M331.8,135.2h9.9v56.2h-9.9v-8.1c-3.4,4.1-9.3,9.3-19,9.3c-14.5,0-27.3-9.9-27.3-29.5
	c0-19,12.7-29.5,27.3-29.5c11,0,16.9,5.8,19,9.3V135.2z M295.3,163.1c0,12.2,7,21.4,18.5,21.4c12.2,0,18.5-9.9,18.5-20.8
	c0-14.5-9.9-20.8-18.5-20.8C303.9,142.2,295.3,149.8,295.3,163.1z"/>
<path fill="#FFFFFF" d="M383.3,148c-1.1-3.4-4.1-5.8-8.1-5.8c-3.4,0-7,2.3-7,6.3c0,4.1,2.9,5.2,9.3,8.1c8.1,3.4,12.2,5.8,13.8,8.6
	c2.3,2.9,2.9,5.8,2.9,9.3c0,11.6-8.6,18.5-19,18.5c-2.3,0-15.1,0-19.7-14.5l8.6-3.4c1.1,2.9,4.1,9.3,11.6,9.3c6.3,0,9.3-4.7,9.3-8.6
	c0-5.2-4.1-7-9.3-9.3c-7-2.9-11-5.2-13.8-8.1c-2.3-2.9-2.3-5.2-2.3-8.1c0-9.9,7-15.6,16.2-15.6c2.9,0,11,0.5,15.6,10.4L383.3,148z"
	/>
<path fill="#FFFFFF" d="M457.9,177c-1.8,2.9-4.1,6.3-7,9.3c-5.2,4.7-11.6,7-18.5,7c-13.3,0-27.8-8.6-27.8-29.5
	c0-16.9,10.4-29.5,27.3-29.5c11,0,17.9,5.2,21.4,10.4c3.4,5.2,5.8,13.8,5.2,21.4h-44c0,11.6,8.1,19,17.9,19c4.7,0,8.1-1.1,11.6-4.1
	c2.3-2.3,4.7-5.2,5.8-7.5L457.9,177z M448.1,157.3c-1.8-8.6-8.1-14.5-16.9-14.5c-8.1,0-15.1,6.3-16.9,14.5H448.1z"/>
<path fill="#FFFFFF" d="M482.9,92.5v99H473v-99C473,92.5,482.9,92.5,482.9,92.5z"/>
<path fill="#FF6600" d="M501.4,135.2h9.9v6.3c1.1-1.8,5.2-7.5,12.7-7.5c2.9,0,6.3,1.1,8.6,2.3l-4.7,8.6c-2.3-1.8-4.1-1.8-5.8-1.8
	c-4.1,0-6.3,1.8-8.1,3.4c-1.8,2.3-3.4,5.8-3.4,15.1v29.5h-9.9V135h0.5V135.2z"/>
<path fill="#FF6600" d="M534.4,163.6c0-16.9,12.7-29.5,29.5-29.5c16.7,0,30.1,12.7,30.1,29.5s-12.7,29.5-30.1,29.5
	C546.4,193.2,534.4,180.5,534.4,163.6z M544.8,163.6c0,13.8,9.9,20.8,19.7,20.8c10.4,0,19.7-7,19.7-20.8c0-13.8-9.3-20.8-19.7-20.8
	C554,142.2,544.8,149.8,544.8,163.6z"/>
<path fill="#FF6600" d="M632.2,148c-1.1-3.4-4.1-5.8-8.1-5.8c-3.4,0-7,2.3-7,6.3c0,4.1,2.9,5.2,9.3,8.1c8.1,3.4,12.2,5.8,13.8,8.6
	c2.3,2.9,2.9,5.8,2.9,9.3c0,11.6-8.6,18.5-19,18.5c-2.3,0-15.1,0-19.7-14.5l8.6-3.4c1.1,2.9,4.1,9.3,11.6,9.3c6.3,0,9.3-4.7,9.3-8.6
	c0-5.2-4.1-7-9.3-9.3c-7-2.9-11-5.2-13.8-8.1c-2.3-2.9-2.3-5.2-2.3-8.1c0-9.9,7-15.6,16.2-15.6c2.9,0,11,0.5,15.6,10.4L632.2,148z"
	/>
<path fill="#FF6600" d="M699.9,135.2h9.9v56.2h-9.9v-8.1c-3.4,4.1-9.3,9.3-19,9.3c-14.5,0-27.3-9.9-27.3-29.5
	c0-19,12.7-29.5,27.3-29.5c11,0,16.9,5.8,19,9.3V135.2z M663.4,163.1c0,12.2,7,21.4,18.5,21.4c12.2,0,18.5-9.9,18.5-20.8
	c0-14.5-9.9-20.8-18.5-20.8C672,142.2,663.4,149.8,663.4,163.1z"/>
</svg>
