<?xml version="1.0" encoding="utf-8"?>
<!-- Generator: Adobe Illustrator 18.0.0, SVG Export Plug-In . SVG Version: 6.00 Build 0)  -->
<!DOCTYPE svg PUBLIC "-//W3C//DTD SVG 1.1//EN" "http://www.w3.org/Graphics/SVG/1.1/DTD/svg11.dtd">
<svg version="1.1" id="Layer_1" xmlns="http://www.w3.org/2000/svg" xmlns:xlink="http://www.w3.org/1999/xlink" x="0px" y="0px"
	 viewBox="0 0 70.3 64.9" enable-background="new 0 0 70.3 64.9" xml:space="preserve">
<path fill="#565656" d="M36.6,51.6c-10.1,0-18.4-8.2-18.4-18.4c0-10.1,8.2-18.4,18.4-18.4c10.1,0,18.4,8.2,18.4,18.4
	C55,43.4,46.7,51.6,36.6,51.6 M36.6,16.8c-9,0-16.4,7.4-16.4,16.4s7.3,16.4,16.4,16.4c9,0,16.4-7.4,16.4-16.4S45.6,16.8,36.6,16.8"
	/>
<path fill="#FFFFFF" d="M36.6,14.8c-2,0-4,0.3-5.8,0.9v2.1c1.8-0.7,3.7-1.1,5.8-1.1c9,0,16.4,7.4,16.4,16.4s-7.3,16.4-16.4,16.4
	c-9,0-16.4-7.4-16.4-16.4c0-2.8,0.7-5.4,1.9-7.7h-2.2c-1.1,2.3-1.7,5-1.7,7.7c0,10.1,8.2,18.4,18.4,18.4c10.1,0,18.4-8.2,18.4-18.4
	C55,23.1,46.7,14.8,36.6,14.8"/>
</svg>
