<?xml version="1.0" encoding="utf-8"?>
<!-- Generator: Adobe Illustrator 18.0.0, SVG Export Plug-In . SVG Version: 6.00 Build 0)  -->
<!DOCTYPE svg PUBLIC "-//W3C//DTD SVG 1.1//EN" "http://www.w3.org/Graphics/SVG/1.1/DTD/svg11.dtd">
<svg version="1.1" id="Layer_1" xmlns="http://www.w3.org/2000/svg" xmlns:xlink="http://www.w3.org/1999/xlink" x="0px" y="0px"
	 viewBox="0 0 63 23" enable-background="new 0 0 63 23" xml:space="preserve">
<g>
	<g>
		<polygon fill="#ED6816" points="7.2,23 12,23 9.6,17.5 		"/>
		<polygon fill="#ED6816" points="14.7,23 14.7,17.9 12.3,23 		"/>
		<path fill="#ED6816" d="M18.9,0H4C1.8,0,0,1.8,0,4v14.9c0,2.2,1.8,4,4,4h2.8l-4.6-9.4h2.3L7,18.8l2.5-6l2.6,6l2.3-5.2h2.3l0,0h0
			v0.9c0.4-0.4,0.7-0.7,1-0.9c0.3-0.2,0.7-0.2,1.1-0.2c0.6,0,1.1,0.2,1.7,0.6l-1,2c-0.4-0.3-0.8-0.5-1.2-0.5c-1.1,0-1.7,0.9-1.7,2.8
			V23h2.1c2.2,0,4-1.8,4-4V4C23,1.8,21.2,0,18.9,0z"/>
	</g>
	<g>
		<path fill="#1C1B1A" d="M25.8,18.4l1.2,2.8l1.3-3.1l1.3,3.1l1.2-2.8h0.8l-2,4.4l-1.3-3.1l-1.3,3.1l-2-4.4H25.8z"/>
		<path fill="#1C1B1A" d="M35.5,18.4h0.7v4.1h-0.7v-0.6c-0.2,0.3-0.7,0.7-1.4,0.7c-1,0-2-0.7-2-2.2c0-1.4,0.9-2.1,2-2.1
			c0.8,0,1.2,0.4,1.4,0.7V18.4z M32.8,20.4c0,0.9,0.5,1.5,1.3,1.5c0.9,0,1.4-0.7,1.4-1.5c0-1.1-0.7-1.5-1.4-1.5
			C33.5,18.9,32.8,19.4,32.8,20.4z"/>
		<path fill="#1C1B1A" d="M39.2,19.3c-0.1-0.2-0.3-0.4-0.6-0.4c-0.3,0-0.5,0.1-0.5,0.5c0,0.3,0.2,0.4,0.7,0.6c0.6,0.2,0.9,0.4,1,0.6
			c0.2,0.2,0.2,0.4,0.2,0.7c0,0.9-0.6,1.3-1.4,1.3c-0.2,0-1.1,0-1.4-1l0.6-0.3c0.1,0.2,0.3,0.7,0.8,0.7c0.5,0,0.7-0.3,0.7-0.7
			c0-0.4-0.3-0.5-0.7-0.7c-0.5-0.2-0.8-0.4-1-0.6c-0.2-0.2-0.2-0.4-0.2-0.6c0-0.7,0.5-1.1,1.2-1.1c0.2,0,0.8,0,1.1,0.7L39.2,19.3z"
			/>
		<path fill="#1C1B1A" d="M44.7,21.4c-0.1,0.2-0.3,0.5-0.5,0.7c-0.4,0.3-0.8,0.5-1.4,0.5c-1,0-2-0.6-2-2.1c0-1.2,0.7-2.2,2-2.2
			c0.8,0,1.3,0.4,1.5,0.7c0.3,0.4,0.4,1,0.4,1.5h-3.2c0,0.8,0.6,1.4,1.3,1.4c0.3,0,0.6-0.1,0.8-0.3c0.2-0.2,0.3-0.4,0.4-0.6
			L44.7,21.4z M44,20c-0.1-0.6-0.6-1.1-1.2-1.1s-1.1,0.5-1.2,1.1H44z"/>
		<path fill="#1C1B1A" d="M46.5,15.3v7.2h-0.7v-7.2H46.5z"/>
		<path fill="#ED6816" d="M47.8,18.4h0.7v0.4c0.1-0.1,0.4-0.5,0.9-0.5c0.2,0,0.5,0.1,0.6,0.2l-0.3,0.6c-0.2-0.1-0.3-0.1-0.4-0.1
			c-0.3,0-0.5,0.1-0.6,0.3c-0.1,0.2-0.2,0.4-0.2,1.1v2.2h-0.7V18.4z"/>
		<path fill="#ED6816" d="M50.2,20.4c0-1.2,0.9-2.2,2.2-2.2s2.2,0.9,2.2,2.2c0,1.2-0.9,2.1-2.2,2.1C51.2,22.6,50.2,21.7,50.2,20.4z
			 M51,20.4c0,1,0.7,1.5,1.4,1.5c0.7,0,1.4-0.5,1.4-1.5c0-1-0.7-1.5-1.4-1.5C51.7,18.9,51,19.4,51,20.4z"/>
		<path fill="#ED6816" d="M57.4,19.3c-0.1-0.2-0.3-0.4-0.6-0.4c-0.3,0-0.5,0.1-0.5,0.5c0,0.3,0.2,0.4,0.7,0.6c0.6,0.2,0.9,0.4,1,0.6
			c0.2,0.2,0.2,0.4,0.2,0.7c0,0.9-0.6,1.3-1.4,1.3c-0.2,0-1.1,0-1.4-1l0.6-0.3c0.1,0.2,0.3,0.7,0.8,0.7c0.5,0,0.7-0.3,0.7-0.7
			c0-0.4-0.3-0.5-0.7-0.7c-0.5-0.2-0.8-0.4-1-0.6c-0.2-0.2-0.2-0.4-0.2-0.6c0-0.7,0.5-1.1,1.2-1.1c0.2,0,0.8,0,1.1,0.7L57.4,19.3z"
			/>
		<path fill="#ED6816" d="M62.3,18.4H63v4.1h-0.7v-0.6c-0.2,0.3-0.7,0.7-1.4,0.7c-1,0-2-0.7-2-2.2c0-1.4,0.9-2.1,2-2.1
			c0.8,0,1.2,0.4,1.4,0.7V18.4z M59.6,20.4c0,0.9,0.5,1.5,1.3,1.5c0.9,0,1.4-0.7,1.4-1.5c0-1.1-0.7-1.5-1.4-1.5
			C60.3,18.9,59.6,19.4,59.6,20.4z"/>
	</g>
</g>
</svg>
